<?xml version="1.0" standalone="no"?>
<!DOCTYPE svg PUBLIC "-//W3C//DTD SVG 20010904//EN"
 "http://www.w3.org/TR/2001/REC-SVG-20010904/DTD/svg10.dtd">
<svg version="1.0" xmlns="http://www.w3.org/2000/svg"
 width="680.000000pt" height="680.000000pt" viewBox="0 0 680.000000 680.000000"
 preserveAspectRatio="xMidYMid meet">
<metadata>
Created by potrace 1.11, written by Peter Selinger 2001-2013
</metadata>
<g transform="translate(0.000000,680.000000) scale(0.100000,-0.100000)"
fill="#000000" stroke="none">
<path d="M3388 6786 c-10 -7 -309 -301 -665 -654 -357 -353 -792 -783 -968
-957 -176 -174 -628 -621 -1003 -993 -376 -373 -691 -681 -700 -686 -26 -13
-42 -37 -42 -62 0 -15 45 -67 143 -166 78 -79 242 -246 364 -373 123 -126 289
-298 370 -382 82 -83 254 -260 383 -394 129 -133 280 -288 335 -344 55 -57
204 -210 330 -340 127 -130 286 -295 355 -366 125 -128 553 -568 665 -684 33
-34 131 -134 218 -222 198 -203 184 -200 330 -55 56 56 199 197 319 314 119
117 464 458 768 758 819 809 1026 1014 1605 1585 289 286 534 522 543 524 34
7 48 30 47 72 -1 30 -8 47 -24 61 -13 10 -26 16 -31 13 -6 -4 -176 168 -590
595 -45 47 -194 200 -330 340 -137 140 -281 289 -320 330 -179 186 -223 230
-231 230 -5 0 -9 4 -9 9 0 5 -55 65 -122 134 -140 142 -336 345 -358 371 -8 9
-54 56 -102 104 -108 109 -257 261 -563 577 -506 523 -660 675 -680 675 -11 0
-28 -7 -37 -14z m-27 -732 l-2 -536 -242 -239 c-133 -132 -245 -239 -249 -239
-5 0 -8 -6 -9 -12 -1 -7 -26 -35 -56 -62 l-54 -50 3 337 c2 185 6 337 10 337
4 0 4 10 0 23 -5 12 -7 33 -5 47 1 14 3 99 5 190 l2 165 295 292 c163 160 298
290 300 287 2 -2 3 -245 2 -540z m589 65 c0 -8 -434 -4 -447 4 -5 3 -8 67 -7
149 1 79 3 181 3 228 l2 85 224 -230 c124 -126 225 -233 225 -236z m102 -118
c10 -1 78 -63 152 -138 309 -318 365 -377 361 -383 -5 -8 -54 -5 -62 4 -3 2
-16 1 -30 -5 -17 -6 -22 -6 -17 2 4 8 1 8 -12 2 -11 -5 -28 -8 -39 -7 -21 3
-50 4 -75 4 -37 -1 -826 7 -836 9 -13 1 -6 503 7 512 7 4 422 4 551 0z m-1408
-533 c-2 -238 -6 -486 -8 -550 l-3 -117 -268 -265 c-147 -146 -271 -266 -275
-266 -4 0 -5 80 -3 178 2 97 5 319 6 493 2 173 7 321 11 328 5 7 4 17 -2 23
-6 6 -7 22 -1 43 7 25 72 95 246 267 129 128 249 248 266 266 17 17 32 32 33
32 2 0 1 -195 -2 -432z m1641 -99 l400 -3 75 -77 c41 -42 97 -99 123 -128 26
-28 52 -51 57 -51 6 0 10 -4 10 -8 0 -4 46 -55 103 -113 56 -59 113 -118 125
-132 l24 -25 -538 3 -538 3 -164 168 c-90 93 -206 213 -258 266 -109 111 -114
104 66 101 63 -1 295 -3 515 -4z m-933 -561 l-3 -553 -279 -275 c-153 -151
-293 -288 -310 -305 l-32 -30 7 355 c3 195 7 444 7 553 l1 197 94 95 c52 52
98 95 103 95 6 0 10 4 10 8 0 5 78 85 173 179 159 158 231 230 233 232 0 1 -2
-248 -4 -551z m215 443 c274 -277 392 -404 387 -412 -3 -6 -11 -5 -20 2 -11 9
-14 9 -14 0 0 -9 -5 -9 -20 -1 -14 8 -20 8 -20 0 0 -8 -6 -8 -20 0 -15 8 -20
8 -21 -2 0 -7 -2 -8 -5 -3 -4 11 -106 11 -123 1 -6 -4 -11 -4 -11 1 0 4 -51 8
-112 8 l-113 0 2 70 c1 39 2 148 2 243 1 94 3 172 6 172 2 0 40 -35 82 -79z
m-1583 -262 c-1 -137 -4 -253 -8 -256 -3 -3 -1 -13 4 -23 5 -10 7 -20 4 -23
-3 -3 -7 -126 -9 -273 l-4 -268 -261 -258 c-143 -142 -264 -258 -268 -258 -4
0 -7 76 -7 170 0 93 4 170 8 170 4 0 4 8 -2 17 -6 11 -6 24 0 35 7 12 6 18 -1
18 -7 0 -8 6 -2 18 7 15 9 107 2 137 -1 6 -1 12 0 15 1 3 4 117 6 255 l3 250
266 262 c146 145 266 263 268 263 2 0 2 -113 1 -251z m2229 -402 c76 -78 195
-200 264 -270 69 -71 123 -130 120 -133 -5 -5 -302 -5 -756 1 l-324 4 -26 25
-26 25 3 246 3 246 302 -2 302 -1 138 -141z m585 130 c6 -5 12 -4 12 1 0 12
83 9 92 -3 5 -7 8 -7 8 0 0 11 89 13 107 2 6 -4 14 -3 18 3 4 7 12 7 26 0 13
-8 19 -7 19 0 0 8 6 8 20 0 14 -8 20 -8 20 0 0 6 5 8 12 4 18 -11 48 -12 48
-2 0 5 6 6 13 1 17 -10 68 -10 91 0 16 8 39 -12 145 -121 69 -72 190 -196 269
-277 78 -80 142 -148 142 -151 0 -3 -242 -2 -537 1 l-538 5 -135 139 c-282
290 -390 402 -390 405 0 7 546 0 558 -7z m-2166 -129 c0 -24 -3 -245 -7 -493
-4 -247 -7 -475 -7 -507 0 -51 -3 -59 -37 -91 l-36 -35 -220 3 c-121 2 -227 3
-236 4 -14 1 -16 19 -15 144 0 82 5 145 11 149 7 5 6 8 -1 8 -11 0 -11 70 0
89 4 6 4 11 -1 11 -4 0 -8 18 -8 40 0 22 2 40 5 40 3 0 5 11 5 25 0 14 -4 25
-9 25 -5 0 -4 6 1 13 5 6 8 31 7 54 0 23 3 40 7 37 5 -3 9 -1 9 4 0 10 10 21
137 144 55 53 98 100 95 103 -3 3 -1 5 5 5 6 0 73 62 149 139 77 76 141 137
143 135 2 -2 4 -23 3 -46z m-1298 -240 c-3 -134 -6 -367 -8 -518 -1 -152 -6
-282 -11 -290 -5 -8 -4 -11 3 -6 8 5 8 -2 0 -24 l-10 -31 -237 1 c-130 1 -243
4 -252 6 -14 4 -16 35 -12 302 l5 297 256 252 c141 139 259 253 263 253 4 0 5
-109 3 -242z m2012 -565 c-3 -170 -5 -311 -5 -315 -1 -10 -605 -10 -615 -1 -7
7 601 621 617 622 4 1 5 -137 3 -306z m560 -156 c90 -92 164 -170 164 -173 0
-4 -522 1 -605 5 -7 1 -10 34 -9 94 2 50 3 191 4 312 l0 220 142 -145 c77 -80
214 -221 304 -313z m435 443 l377 -2 203 -210 c112 -115 242 -249 289 -297 47
-48 90 -94 97 -102 10 -13 -57 -14 -530 -11 l-542 3 -175 179 c-299 306 -405
415 -417 431 -11 14 6 15 155 13 92 -1 336 -3 543 -4z m2031 -439 c98 -101
176 -186 173 -189 -3 -3 -242 -4 -533 -3 l-527 2 -150 153 c-222 227 -428 440
-443 458 -12 15 11 16 280 12 161 -2 298 -5 303 -5 6 0 19 0 30 1 11 1 107 1
214 0 134 -1 197 2 205 10 8 8 43 -22 140 -122 71 -73 209 -216 308 -317z
m-4407 97 l-2 -253 -252 -2 c-138 -1 -251 1 -251 4 0 5 499 503 505 503 1 0 1
-114 0 -252z m-1270 5 c-3 -130 -7 -238 -10 -241 -5 -5 -33 -5 -284 -2 l-183
2 28 30 c16 16 118 118 228 226 109 108 204 202 210 209 6 7 12 12 14 13 1 0
0 -107 -3 -237z m733 -511 c74 -75 208 -213 298 -306 91 -93 163 -171 160
-173 -3 -3 -67 -4 -143 -3 -76 1 -313 2 -528 2 l-390 0 -164 167 c-323 329
-427 436 -435 449 -6 10 94 12 531 7 l538 -6 133 -137z m1252 -11 c274 -281
460 -474 460 -477 0 -2 -242 -3 -537 -3 l-538 1 -203 207 c-334 340 -402 411
-402 417 0 3 244 3 543 0 l542 -7 135 -138z m423 129 l239 0 -3 -272 c-2 -150
-6 -291 -10 -313 l-6 -40 -184 186 c-312 316 -428 437 -424 440 2 3 37 3 77 2
40 -1 180 -2 311 -3z m690 -9 c179 -1 267 -4 267 -11 0 -6 -12 -22 -27 -36
-16 -14 -153 -150 -305 -301 l-278 -277 0 311 c0 170 2 312 5 315 3 2 19 3 37
2 18 -1 153 -3 301 -3z m741 -14 l190 -2 1 -27 c1 -16 -2 -28 -7 -28 -5 0 -6
-6 -1 -12 10 -18 11 -59 1 -80 -6 -12 -5 -18 2 -18 7 0 8 -6 1 -17 -5 -10 -5
-26 0 -40 5 -13 5 -23 1 -23 -4 0 -7 -18 -7 -40 0 -22 4 -40 8 -40 5 0 5 -5 1
-11 -4 -7 -8 -71 -8 -143 l-2 -131 -103 -102 c-56 -57 -107 -103 -112 -103 -5
0 -9 -6 -10 -12 0 -7 -18 -28 -41 -45 -22 -18 -38 -33 -35 -33 3 0 -27 -30
-65 -67 -39 -38 -93 -92 -121 -120 -27 -29 -53 -53 -56 -53 -7 0 -5 258 4 755
7 332 8 351 27 372 20 21 64 31 118 25 14 -1 110 -3 214 -5z m601 -7 l189 -1
-247 -245 c-218 -216 -271 -265 -253 -236 3 4 6 114 8 243 1 128 5 236 9 239
4 3 29 4 56 3 26 0 133 -2 238 -3z m698 -10 c154 -2 157 -2 157 -23 1 -61 -2
-431 -4 -493 l-2 -70 -233 -230 c-129 -126 -246 -241 -261 -256 l-28 -27 -4
35 c-2 19 -2 36 0 39 4 3 8 290 13 815 1 107 6 200 10 206 6 7 43 9 101 8 51
-2 164 -4 251 -4z m724 -14 c1 -1 -101 -105 -227 -231 l-230 -229 1 230 c1
126 3 232 5 235 3 5 446 0 451 -5z m-1192 -151 c0 -25 -3 -45 -7 -45 -4 0 -3
-12 2 -26 7 -17 7 -32 0 -45 -8 -13 -7 -19 0 -19 8 0 8 -6 0 -20 -8 -14 -8
-20 0 -20 6 0 8 -5 4 -12 -4 -7 -9 -118 -10 -248 -1 -129 -3 -314 -4 -411 -2
-97 -1 -180 2 -185 3 -5 -104 -117 -238 -250 -134 -132 -244 -239 -244 -236 0
3 -9 -7 -21 -22 -27 -35 -47 -34 -43 2 2 15 6 179 8 364 3 186 7 342 11 348 3
5 2 10 -4 10 -6 0 -8 7 -4 17 8 21 8 77 0 90 -4 6 -3 13 0 17 4 4 8 54 8 111
l1 104 245 242 c204 201 285 279 293 279 0 0 1 -20 1 -45z m-1300 -182 c-3
-115 -6 -364 -8 -555 l-4 -346 -219 -217 c-120 -119 -259 -255 -307 -303 l-89
-87 6 553 6 553 307 304 c170 168 309 305 311 305 1 0 0 -93 -3 -207z m-2390
-324 l330 -3 128 -129 c70 -71 127 -133 127 -138 0 -5 7 -9 15 -9 8 0 15 -4
15 -8 0 -4 54 -63 120 -131 66 -67 120 -126 120 -130 0 -10 -81 -8 -97 2 -7 5
-13 5 -13 0 0 -4 -13 -8 -30 -8 -16 -1 -30 2 -30 6 0 4 -16 3 -35 -1 -21 -5
-35 -4 -35 2 0 5 -5 6 -11 3 -16 -10 -69 -12 -75 -3 -3 4 -13 5 -22 0 -15 -7
-38 -8 -52 -2 -17 6 -50 5 -50 -2 0 -5 -5 -6 -12 -2 -6 4 -146 8 -310 8 l-299
1 -157 162 c-86 89 -205 211 -264 272 l-107 110 37 3 c20 2 114 2 207 1 94 0
319 -2 500 -4z m1470 -11 l121 -3 32 -35 32 -35 -2 -220 c-1 -121 -4 -228 -6
-237 -4 -15 -31 -16 -314 -15 l-309 2 -161 165 c-88 91 -204 211 -259 266 -54
56 -99 104 -99 107 0 3 17 7 38 9 41 3 740 0 927 -4z m1568 -120 c3 -22 1 -38
-5 -38 -7 0 -6 -5 1 -13 6 -8 8 -16 5 -19 -3 -3 -7 -151 -9 -329 -2 -178 -4
-324 -5 -324 -1 0 -2 -74 -2 -165 l-1 -165 -270 -268 c-149 -147 -273 -263
-276 -258 -3 5 -5 44 -4 88 1 43 4 284 7 535 l6 458 252 250 c139 137 255 250
258 250 3 0 11 9 18 21 16 26 19 24 25 -23z m-2540 -529 l477 -4 198 -204
c108 -112 223 -230 255 -262 31 -32 57 -61 57 -63 0 -3 -240 -4 -532 -3 l-533
2 -128 130 c-246 249 -387 397 -387 403 0 4 26 6 57 6 32 -1 273 -3 536 -5z
m1063 -12 c4 -4 15 -2 25 4 13 7 26 6 40 -1 20 -11 20 -18 17 -265 l-3 -255
-148 153 c-81 83 -194 200 -251 259 -57 58 -103 108 -101 110 6 6 415 1 421
-5z m808 -369 c-3 -161 -6 -407 -7 -546 l-2 -254 -287 -282 c-158 -156 -295
-289 -303 -296 -14 -12 -15 39 -10 533 l6 546 186 183 c101 101 235 233 296
295 62 61 115 112 119 112 4 1 5 -131 2 -291z m-1316 -272 c6 -3 13 -2 17 3 3
5 15 7 28 5 12 -3 27 -6 32 -5 50 1 157 1 295 0 127 -1 170 -5 188 -16 l24
-14 -3 -245 -3 -244 -41 0 c-96 -2 -522 1 -541 3 -11 1 -82 66 -165 151 -79
81 -192 197 -250 257 -59 59 -105 110 -103 112 7 6 510 0 522 -7z m573 -669
c1 -114 -6 -439 -10 -443 -1 -2 -232 233 -326 331 -31 33 -78 81 -103 107
l-46 48 242 -1 242 0 1 -42z"/>
</g>
</svg>
